<mxfile modified="2022-12-13T11:29:28.221Z" host="app.diagrams.net" agent="5.0 (X11)" etag="-4fURev6ZdV7cX7DUCiX" version="20.6.2" type="github">
  <diagram id="Ht1M8jgEwFfnCIfOTk4-" name="Page-1">
    <mxGraphModel dx="1422" dy="759" grid="1" gridSize="10" guides="1" tooltips="1" connect="1" arrows="1" fold="1" page="1" pageScale="1" pageWidth="1169" pageHeight="827" math="0" shadow="0">
      <root>
        <mxCell id="0" />
        <mxCell id="1" parent="0" />
        <mxCell id="6ciUN1QbZPSy4jL6s6Ek-3" value="" style="rounded=0;whiteSpace=wrap;html=1;dashed=1;strokeWidth=5;fillColor=none;" parent="1" vertex="1">
          <mxGeometry x="507" y="331" width="380" height="166" as="geometry" />
        </mxCell>
        <mxCell id="6ciUN1QbZPSy4jL6s6Ek-6" value="" style="rounded=1;whiteSpace=wrap;html=1;strokeWidth=3;fontSize=30;fillColor=none;strokeColor=#FF5314;" parent="1" vertex="1">
          <mxGeometry x="93" y="194" width="1020" height="440" as="geometry" />
        </mxCell>
        <mxCell id="UEzPUAAOIrF-is8g5C7q-109" value="&lt;div&gt;Client&lt;/div&gt;&lt;div&gt;&lt;br&gt;&lt;/div&gt;" style="outlineConnect=0;gradientColor=none;fontColor=#545B64;strokeColor=none;fillColor=#879196;dashed=0;verticalLabelPosition=bottom;verticalAlign=top;align=center;html=1;fontSize=12;fontStyle=0;aspect=fixed;shape=mxgraph.aws4.illustration_desktop;pointerEvents=1;labelBackgroundColor=#ffffff;" parent="1" vertex="1">
          <mxGeometry x="283" y="370" width="100" height="91" as="geometry" />
        </mxCell>
        <mxCell id="6ciUN1QbZPSy4jL6s6Ek-4" value="" style="endArrow=classic;startArrow=classic;html=1;rounded=1;entryX=-0.01;entryY=0.504;entryDx=0;entryDy=0;entryPerimeter=0;jumpSize=60;strokeColor=default;sketch=0;strokeWidth=4;" parent="1" target="6ciUN1QbZPSy4jL6s6Ek-3" edge="1">
          <mxGeometry width="50" height="50" relative="1" as="geometry">
            <mxPoint x="390" y="415" as="sourcePoint" />
            <mxPoint x="450" y="380" as="targetPoint" />
          </mxGeometry>
        </mxCell>
        <mxCell id="6ciUN1QbZPSy4jL6s6Ek-5" value="https" style="edgeLabel;html=1;align=center;verticalAlign=middle;resizable=0;points=[];fontSize=30;" parent="6ciUN1QbZPSy4jL6s6Ek-4" vertex="1" connectable="0">
          <mxGeometry x="-0.1285" y="-2" relative="1" as="geometry">
            <mxPoint x="7" y="-1" as="offset" />
          </mxGeometry>
        </mxCell>
        <mxCell id="6ciUN1QbZPSy4jL6s6Ek-7" value="&lt;font color=&quot;#FF642B&quot;&gt;Draw.io&lt;/font&gt;" style="text;html=1;align=center;verticalAlign=middle;resizable=0;points=[];autosize=1;strokeColor=none;fillColor=none;fontSize=30;" parent="1" vertex="1">
          <mxGeometry x="170" y="230" width="120" height="50" as="geometry" />
        </mxCell>
        <mxCell id="MnHnos_hasYFL2dvTtjM-1" value="" style="outlineConnect=0;dashed=0;verticalLabelPosition=bottom;verticalAlign=top;align=center;html=1;shape=mxgraph.aws3.cloud_2;fillColor=#F58534;gradientColor=none;" vertex="1" parent="1">
          <mxGeometry x="608" y="373" width="75" height="75" as="geometry" />
        </mxCell>
        <mxCell id="MnHnos_hasYFL2dvTtjM-2" value="" style="sketch=0;points=[[0,0,0],[0.25,0,0],[0.5,0,0],[0.75,0,0],[1,0,0],[0,1,0],[0.25,1,0],[0.5,1,0],[0.75,1,0],[1,1,0],[0,0.25,0],[0,0.5,0],[0,0.75,0],[1,0.25,0],[1,0.5,0],[1,0.75,0]];outlineConnect=0;fontColor=#232F3E;gradientColor=#60A337;gradientDirection=north;fillColor=#277116;strokeColor=#ffffff;dashed=0;verticalLabelPosition=bottom;verticalAlign=top;align=center;html=1;fontSize=12;fontStyle=0;aspect=fixed;shape=mxgraph.aws4.resourceIcon;resIcon=mxgraph.aws4.s3;" vertex="1" parent="1">
          <mxGeometry x="710" y="373" width="77" height="77" as="geometry" />
        </mxCell>
        <mxCell id="MnHnos_hasYFL2dvTtjM-4" value="&lt;font style=&quot;font-size: 30px;&quot; color=&quot;#FF8E2B&quot;&gt;aws s3 serves the index.html&lt;/font&gt;" style="text;html=1;align=center;verticalAlign=middle;resizable=0;points=[];autosize=1;strokeColor=none;fillColor=none;" vertex="1" parent="1">
          <mxGeometry x="492" y="260" width="410" height="50" as="geometry" />
        </mxCell>
      </root>
    </mxGraphModel>
  </diagram>
</mxfile>
